<svg width="216" height="40" viewBox="0 0 216 40" fill="none" xmlns="http://www.w3.org/2000/svg">
<path d="M0 0H111L92 40H0V0Z" fill="black"/>
<g clip-path="url(#clip0_0_1)">
<path d="M90.8965 46L87.3659 44.3359L125.469 -38L129 -36.3359L90.8965 46ZM123.088 -36.2793L119.766 -37.846L81.7587 44.2793L85.0809 45.846L123.086 -36.2793H123.088ZM117.174 -36.2227L114.058 -37.6921L76.1469 44.2227L79.2631 45.6921L117.174 -36.2227ZM111.26 -36.1661L108.352 -37.5381L70.5374 44.1684L73.4452 45.5404L111.26 -36.1661ZM105.346 -36.1095L102.644 -37.3842L64.9257 44.1118L67.6274 45.3864L105.346 -36.1095ZM99.4314 -36.0529L96.9381 -37.228L59.3184 44.0597L61.8118 45.2348L99.4314 -36.0529ZM93.5173 -35.9963L91.2322 -37.074L53.7089 44.0031L55.9939 45.0808L93.5173 -35.9986V-35.9963ZM87.6031 -35.9397L85.5242 -36.92L48.0972 43.9465L50.1761 44.9268L87.6031 -35.9442V-35.9397ZM81.6889 -35.8831L79.8184 -36.7661L42.4877 43.8922L44.3583 44.7751L81.6889 -35.8876V-35.8831ZM75.7747 -35.8265L74.1103 -36.6099L36.876 43.8378L38.5404 44.6212L75.7747 -35.831V-35.8265ZM69.8606 -35.7699L68.4045 -36.4559L31.2687 43.7835L32.7248 44.4695L69.8606 -35.7767V-35.7699ZM63.9464 -35.7133L62.6986 -36.302L25.6592 43.7269L26.907 44.3155L63.9464 -35.7201V-35.7133ZM58.0323 -35.6567L56.9906 -36.148L20.0475 43.6703L21.0892 44.1616L58.0323 -35.6635V-35.6567ZM52.1181 -35.6001L51.2847 -35.994L14.438 43.616L15.2713 44.0099L52.1181 -35.6069V-35.6001ZM46.2039 -35.5435L45.5789 -35.8378L8.83073 43.5616L9.45575 43.8559L46.2062 -35.5526L46.2039 -35.5435ZM40.2898 -35.4869L39.8708 -35.6839L3.21899 43.505L3.63791 43.702L40.292 -35.496L40.2898 -35.4869ZM34.3263 -35.3239L34.3756 -35.4303L34.165 -35.5299L-2.34122 43.3443L-2.39051 43.4507L-2.17992 43.5503L34.3286 -35.3329L34.3263 -35.3239ZM28.4614 -35.3737L28.457 -35.3782L-8 43.3918L-7.99552 43.3963L28.4614 -35.3828V-35.3737Z" fill="url(#paint0_linear_0_1)"/>
</g>
<defs>
<linearGradient id="paint0_linear_0_1" x1="101.994" y1="33.1467" x2="-8" y2="33.1467" gradientUnits="userSpaceOnUse">
<stop stop-color="#00FFD2"/>
<stop offset="0.34" stop-color="#FCEA06"/>
<stop offset="0.71" stop-color="#E5007D"/>
</linearGradient>
<clipPath id="clip0_0_1">
<rect width="216" height="40" fill="white"/>
</clipPath>
</defs>
</svg>
